<svg width="70" height="73" viewBox="0 0 70 73" fill="none" xmlns="http://www.w3.org/2000/svg">
<path d="M25.7296 49.92C26.0496 52.48 25.8896 54.848 25.2496 57.024C24.6736 59.2 23.6496 61.152 22.1776 62.88C20.7056 64.608 19.0736 66.112 17.2816 67.392C15.5536 68.736 13.5056 70.016 11.1376 71.232C9.79357 71.936 8.44957 72.16 7.10557 71.904C5.76157 71.712 4.67357 71.136 3.84157 70.176C3.00957 69.216 2.36957 68.16 1.92157 67.008C1.53757 65.856 1.60157 64.64 2.11357 63.36C2.62557 62.144 3.55357 61.184 4.89757 60.48C7.71357 58.944 9.63357 57.152 10.6576 55.104C11.7456 52.992 12.0656 50.88 11.6176 48.768C11.1696 46.592 10.3696 44.224 9.21757 41.664C8.06557 39.04 6.78557 36.576 5.37757 34.272C3.96957 31.904 2.72157 29.376 1.63357 26.688C0.545574 24 0.00157377 21.6 0.00157377 19.488C-0.0624262 13.92 1.82557 9.376 5.66557 5.856C9.50557 2.336 14.1776 0.768003 19.6816 1.152C22.1776 1.344 23.9376 2.528 24.9616 4.704C26.0496 6.88 26.0496 8.992 24.9616 11.04C23.9376 13.024 22.1776 13.92 19.6816 13.728C18.0816 13.6 16.7696 13.696 15.7456 14.016C14.7216 14.272 13.9856 14.752 13.5376 15.456C13.1536 16.16 12.8976 16.96 12.7696 17.856C12.6416 18.688 12.7376 19.68 13.0576 20.832C13.3776 21.984 13.7296 23.104 14.1136 24.192C14.4976 25.216 15.0096 26.368 15.6496 27.648C16.3536 28.928 16.9616 30.016 17.4736 30.912C17.9856 31.808 18.5296 32.768 19.1056 33.792C19.7456 34.816 20.1616 35.552 20.3536 36C23.4256 41.632 25.2176 46.272 25.7296 49.92ZM67.4574 5.95199C67.1374 22.912 67.7134 39.872 69.1854 56.832C69.3774 59.328 68.4814 61.088 66.4974 62.112C64.5134 63.136 62.4334 63.136 60.2574 62.112C58.0814 61.088 56.8654 59.328 56.6094 56.832C56.1614 51.776 55.7774 45.984 55.4574 39.456C53.0894 39.648 49.5054 39.936 44.7054 40.32C45.0254 46.72 45.3454 52.48 45.6654 57.6C45.8574 60.16 44.9294 61.952 42.8814 62.976C40.8974 64 38.8174 64 36.6414 62.976C34.4654 61.952 33.3134 60.16 33.1854 57.6C32.0974 41.664 31.4894 25.696 31.3614 9.696C31.3614 8.16 31.7774 6.88 32.6094 5.856C33.4414 4.768 34.4654 4.128 35.6814 3.936C36.9614 3.68 38.2094 3.68 39.4254 3.936C40.6414 4.128 41.6654 4.768 42.4974 5.856C43.3934 6.88 43.8414 8.16 43.8414 9.696C43.9054 15.136 44.0334 21.184 44.2254 27.84C45.4414 27.776 47.2334 27.648 49.6014 27.456C52.0334 27.2 53.8574 27.04 55.0734 26.976C54.8814 19.36 54.8494 12.352 54.9774 5.95199C55.0414 4.416 55.4894 3.136 56.3214 2.112C57.2174 1.024 58.2734 0.384002 59.4894 0.191992C60.7694 -0.0639975 62.0174 -0.0639975 63.2334 0.191992C64.4494 0.384002 65.4734 1.024 66.3054 2.112C67.1374 3.136 67.5214 4.416 67.4574 5.95199Z" fill="#C0D4DF"/>
</svg>
