<?xml version="1.0" standalone="no"?>
<!DOCTYPE svg PUBLIC "-//W3C//DTD SVG 20010904//EN"
 "http://www.w3.org/TR/2001/REC-SVG-20010904/DTD/svg10.dtd">
<svg version="1.0" xmlns="http://www.w3.org/2000/svg"
 width="488.000000pt" height="511.000000pt" viewBox="0 0 488.000000 511.000000"
 preserveAspectRatio="xMidYMid meet">

<g transform="translate(0.000000,511.000000) scale(0.100000,-0.100000)"
fill="#000000" stroke="none">
<path d="M2177 4865 c-751 -91 -1410 -548 -1752 -1217 -167 -326 -248 -659
-249 -1028 0 -277 29 -463 115 -724 163 -496 502 -927 954 -1211 391 -246 897
-372 1355 -335 734 58 1375 445 1765 1065 312 495 417 1131 284 1708 l-21 87
-204 0 c-112 0 -204 -4 -204 -9 0 -5 7 -28 15 -52 40 -113 66 -283 72 -467 7
-217 -5 -342 -52 -527 -57 -230 -156 -443 -301 -647 -78 -110 -307 -338 -419
-416 -241 -170 -488 -274 -779 -329 -129 -25 -503 -25 -632 0 -291 55 -538
159 -779 329 -112 78 -341 306 -419 416 -189 267 -311 577 -346 882 -19 162
-8 445 24 596 122 579 495 1057 1028 1314 354 171 729 224 1118 159 98 -17
230 -48 277 -66 10 -4 13 36 13 201 l0 205 -37 10 c-241 65 -569 87 -826 56z"/>
<path d="M3790 4490 l0 -220 -215 0 -215 0 0 -155 0 -155 215 0 215 0 0 -215
0 -215 155 0 155 0 0 215 0 215 215 0 215 0 0 155 0 155 -215 0 -215 0 0 220
0 220 -155 0 -155 0 0 -220z"/>
<path d="M2750 3386 c-176 -38 -290 -117 -348 -246 -21 -44 -26 -70 -26 -136
0 -71 4 -89 32 -146 30 -61 108 -148 157 -175 23 -13 25 -11 -45 -51 -200
-112 -280 -344 -185 -537 33 -69 129 -158 207 -195 218 -101 551 -101 764 1
265 126 331 443 136 652 -26 27 -71 63 -99 79 -29 17 -53 33 -53 36 1 4 18 19
40 34 96 66 144 176 138 311 -8 174 -108 291 -303 353 -99 32 -309 42 -415 20z
m310 -269 c33 -17 51 -34 68 -67 52 -104 8 -213 -102 -245 -137 -41 -280 4
-315 98 -27 72 2 169 62 206 74 45 204 49 287 8z m-17 -621 c95 -29 146 -94
147 -188 0 -131 -93 -202 -265 -202 -130 0 -210 39 -246 118 -52 114 3 234
124 272 56 17 183 17 240 0z"/>
<path d="M1324 3377 c-2 -7 -3 -78 -2 -157 l3 -145 143 -3 142 -3 0 -614 0
-615 195 0 195 0 -2 773 -3 772 -333 3 c-267 2 -334 0 -338 -11z"/>
</g>
</svg>
